<svg width="16" height="12" viewBox="0 0 16 12" fill="none" xmlns="http://www.w3.org/2000/svg">
<g id="social_ic-email_x16">
<path d="M7.21596 5.91784C7.63375 6.19676 8.36681 6.19679 8.78469 5.91781C8.78475 5.91777 8.78485 5.91771 8.78491 5.91768L15.9057 1.16376C15.6722 0.487312 15.0302 0 14.2763 0H1.72423C0.970317 0 0.328343 0.487312 0.0947475 1.16376L7.21574 5.91771C7.21584 5.91777 7.2159 5.91777 7.21596 5.91784Z" fill="currentColor"></path><path d="M9.30464 6.69873C9.30454 6.6988 9.30448 6.69886 9.30442 6.69889C8.93873 6.94302 8.46929 7.06509 8 7.06509C7.53062 7.06509 7.06137 6.94305 6.69565 6.69886C6.69558 6.69883 6.69555 6.6988 6.69549 6.69877L0 2.22888V10.2737C0 11.2256 0.77335 12 1.72395 12H14.2761C15.2267 12 16 11.2256 16 10.2737V2.22888L9.30464 6.69873Z" fill="currentColor">
</path></g></svg>