<svg width="24" height="24" viewBox="0 0 24 24" fill="none" xmlns="http://www.w3.org/2000/svg">
<g id="social_ic-youtube_x24">
<path id="ic-youtube" fill-rule="evenodd" clip-rule="evenodd" d="M19.3764 7.03011C18.7988 6.29845 17.7325 6 15.6961 6H8.30379C6.22075 6 5.13636 6.3177 4.56098 7.09667C4 7.85616 4 8.97522 4 10.524V13.476C4 16.4766 4.6656 18 8.30379 18H15.6961C17.4621 18 18.4407 17.7366 19.0738 17.0909C19.723 16.4288 20 15.3477 20 13.476V10.524C20 8.89068 19.9566 7.76502 19.3764 7.03011ZM14.2721 12.4076L10.9153 14.2772C10.8402 14.319 10.7581 14.3398 10.6762 14.3398C10.5834 14.3398 10.4908 14.3131 10.4088 14.2602C10.2543 14.1605 10.1601 13.9821 10.1601 13.7897V10.0624C10.1601 9.87036 10.2541 9.69214 10.4082 9.59237C10.5624 9.49259 10.7541 9.48577 10.9141 9.57432L14.2709 11.4319C14.4417 11.5264 14.5489 11.7143 14.5492 11.9193C14.5494 12.1245 14.4426 12.3126 14.2721 12.4076Z" fill="currentColor">
</path></g></svg>