<svg width="16" height="16" viewBox="0 0 16 16" fill="none" xmlns="http://www.w3.org/2000/svg"><g id="social_ic-whatsapp_x16">
<path fill-rule="evenodd" clip-rule="evenodd" d="M8.14201 0C12.4749 0 16 3.49891 16 7.79964C16 12.0999 12.4749 15.5984 8.14207 15.5984C6.84253 15.5984 5.55848 15.278 4.42238 14.671L0.270689 15.9902C0.250014 15.9968 0.228819 16 0.20778 16C0.152871 16 0.0991049 15.9782 0.0594685 15.9377C0.00455945 15.8818 -0.014142 15.7997 0.0110009 15.7255L1.36077 11.7439C0.655572 10.5523 0.283313 9.19065 0.283313 7.79964C0.283313 3.49891 3.80871 0 8.14201 0ZM11.8392 9.19382C11.808 9.17886 10.6415 8.60447 10.4343 8.52987C10.3497 8.49948 10.259 8.46982 10.1626 8.46982C10.0051 8.46982 9.87277 8.54831 9.7697 8.70249C9.65318 8.87569 9.30046 9.288 9.19147 9.41117C9.17723 9.42743 9.15781 9.44686 9.14617 9.44686C9.13573 9.44686 8.95521 9.37252 8.90056 9.34878C7.64929 8.80525 6.69952 7.49818 6.56929 7.27777C6.55069 7.24608 6.54991 7.23169 6.54975 7.23169C6.55433 7.21491 6.5964 7.17273 6.61812 7.15096C6.68165 7.0881 6.75048 7.00525 6.81708 6.92509C6.84861 6.88712 6.8802 6.84909 6.91121 6.81325C7.00783 6.70083 7.05085 6.61356 7.10072 6.51247L7.12684 6.45995C7.24861 6.21803 7.14461 6.01387 7.111 5.94795C7.08342 5.89278 6.5909 4.7041 6.53853 4.57922C6.41261 4.27787 6.24622 4.13756 6.015 4.13756C5.99355 4.13756 6.015 4.13756 5.92503 4.14135C5.81547 4.14597 5.21884 4.22452 4.95505 4.39081C4.67531 4.56717 4.20207 5.12935 4.20207 6.11803C4.20207 7.00784 4.76674 7.848 5.00918 8.16753C5.01521 8.17558 5.02627 8.19195 5.04233 8.21543C5.97079 9.57138 7.12825 10.5763 8.3016 11.045C9.43121 11.4962 9.96612 11.5484 10.2702 11.5484C10.2703 11.5484 10.2703 11.5484 10.2703 11.5484C10.3981 11.5484 10.5004 11.5383 10.5906 11.5295L10.6478 11.524C11.0381 11.4894 11.8956 11.045 12.0907 10.503C12.2444 10.076 12.2849 9.60951 12.1826 9.44021C12.1126 9.32509 11.9919 9.26717 11.8392 9.19382Z" fill="currentColor">
</path></g></svg>